<svg xmlns="http://www.w3.org/2000/svg" viewBox="0 0 64 64" role="img" aria-label="ELAVERIS">
  <rect x="1" y="1" width="62" height="62" rx="10" fill="#080a0a" stroke="#c6a15b" stroke-width="1.5"/>
  <g fill="#c6a15b">
    <path d="M32 5L34 11L41 13L34 15L32 22L30 15L23 13L30 11Z"/>
    <path d="M29 39C23 31 17 22 14 13C11 24 16 36 27 43Z"/>
    <path d="M27 44C20 40 15 35 12 29C13 38 19 44 27 48Z"/>
    <path d="M35 39C41 31 47 22 50 13C53 24 48 36 37 43Z"/>
    <path d="M37 44C44 40 49 35 52 29C51 38 45 44 37 48Z"/>
    <path d="M32 23C36 29 35 34 32 38C29 34 28 29 32 23Z"/>
    <path d="M27 40C25 47 28 53 31 60C30 52 31 46 32 41Z"/>
    <path d="M37 40C39 47 36 53 33 60C34 52 33 46 32 41Z"/>
    <path d="M32 34L38 43L32 52L26 43Z"/>
  </g>
  <path d="M32 38L35 43L32 48L29 43Z" fill="#f3efe5"/>
  <path d="M21 44C16 49 17 54 23 59C20 53 21 49 25 46Z" fill="#f3efe5"/>
  <path d="M43 44C48 49 47 54 41 59C44 53 43 49 39 46Z" fill="#f3efe5"/>
</svg>
