<svg xmlns="http://www.w3.org/2000/svg" viewBox="0 0 1200 630" role="img" aria-labelledby="title desc">
  <title id="title">ELAVERIS — Structurer. Décider. Avancer.</title>
  <desc id="desc">Visuel de partage noir et or pour ELAVERIS, conseil en structuration et pilotage d’entreprise.</desc>
  <defs>
    <radialGradient id="glow" cx="78%" cy="35%" r="54%">
      <stop offset="0" stop-color="#c6a15b" stop-opacity=".22"/>
      <stop offset="1" stop-color="#080a0a" stop-opacity="0"/>
    </radialGradient>
    <pattern id="grid" width="78" height="78" patternUnits="userSpaceOnUse">
      <path d="M78 0H0V78" fill="none" stroke="#ffffff" stroke-opacity=".045"/>
    </pattern>
  </defs>
  <rect width="1200" height="630" fill="#080a0a"/>
  <rect width="1200" height="630" fill="url(#glow)"/>
  <rect width="1200" height="630" fill="url(#grid)"/>
  <g fill="none" stroke="#e2c77f" stroke-opacity=".13">
    <path d="M1226 51C1077-45 905-23 819 68C734 158 776 249 687 317C598 385 491 339 428 423C366 507 431 628 562 646"/>
    <path d="M1239 106C1103 23 951 38 875 113C799 188 835 264 754 327C673 389 576 354 519 426C462 498 518 602 632 626"/>
    <path d="M1254 165C1133 94 1002 104 936 165C870 226 898 289 825 343C752 397 666 372 615 432C563 493 612 576 709 602"/>
  </g>
  <g transform="translate(73 70)">
    <rect x="1" y="1" width="116" height="116" rx="3" fill="#0f1212" stroke="#c6a15b" stroke-width="2"/>
    <path d="M31 28V90M31 28H83M31 59H70M31 90H83" fill="none" stroke="#f3efe5" stroke-width="5.5"/>
    <path d="M90 21C72 36 65 49 67 60C69 75 81 84 93 99" fill="none" stroke="#e2c77f" stroke-width="5.5" stroke-linecap="round"/>
    <circle cx="67" cy="60" r="4.5" fill="#e2c77f"/>
  </g>
  <text x="219" y="129" fill="#f3efe5" font-family="Inter, Arial, sans-serif" font-size="50" font-weight="700" letter-spacing="11">ELAVERIS</text>
  <text x="75" y="304" fill="#f3efe5" font-family="Georgia, serif" font-size="81">Structurer.</text>
  <text x="168" y="391" fill="#f3efe5" font-family="Georgia, serif" font-size="81">Décider.</text>
  <text x="75" y="478" fill="#e2c77f" font-family="Georgia, serif" font-size="81" font-style="italic">Avancer.</text>
  <line x1="75" y1="530" x2="1125" y2="530" stroke="#c6a15b" stroke-opacity=".5"/>
  <text x="75" y="573" fill="#b7bfbb" font-family="Inter, Arial, sans-serif" font-size="19" letter-spacing="2.4">CONSEIL EN STRUCTURATION ET PILOTAGE D’ENTREPRISE</text>
  <text x="1058" y="112" fill="#e2c77f" font-family="Inter, Arial, sans-serif" font-size="13" font-weight="700" letter-spacing="3" transform="rotate(90 1058 112)">ELAVER · ALLIER</text>
</svg>
